<svg width="62" height="62" viewBox="0 0 62 62" fill="none" xmlns="http://www.w3.org/2000/svg">
<g filter="url(#filter0_d_1_945)">
<circle cx="31" cy="27" r="17" fill="#1C140F"/>
</g>
<path d="M34.481 20H28.519C26.5786 20 25 21.5786 25 23.519V29.4811C25 31.4214 26.5786 33 28.519 33H34.4811C36.4214 33 38 31.4214 38 29.4811V23.519C38 21.5786 36.4214 20 34.481 20V20ZM37.2379 29.4811C37.2379 31.0012 36.0012 32.2379 34.481 32.2379H28.519C26.9988 32.2379 25.7621 31.0012 25.7621 29.4811V23.519C25.7621 21.9988 26.9988 20.7621 28.519 20.7621H34.4811C36.0012 20.7621 37.2379 21.9988 37.2379 23.519V29.4811Z" fill="white"/>
<path d="M31.4999 22.9454C29.5399 22.9454 27.9453 24.54 27.9453 26.5C27.9453 28.46 29.5399 30.0546 31.4999 30.0546C33.4599 30.0546 35.0545 28.46 35.0545 26.5C35.0545 24.54 33.4599 22.9454 31.4999 22.9454ZM31.4999 29.2925C29.9602 29.2925 28.7074 28.0398 28.7074 26.5C28.7074 24.9603 29.9602 23.7075 31.4999 23.7075C33.0397 23.7075 34.2924 24.9603 34.2924 26.5C34.2924 28.0398 33.0397 29.2925 31.4999 29.2925Z" fill="white"/>
<path d="M35.1394 21.683C34.5602 21.683 34.0891 22.1542 34.0891 22.7333C34.0891 23.3125 34.5602 23.7838 35.1394 23.7838C35.7187 23.7838 36.1899 23.3125 36.1899 22.7333C36.1899 22.1541 35.7187 21.683 35.1394 21.683ZM35.1394 23.0215C34.9806 23.0215 34.8512 22.8922 34.8512 22.7333C34.8512 22.5743 34.9806 22.4451 35.1394 22.4451C35.2984 22.4451 35.4278 22.5743 35.4278 22.7333C35.4278 22.8922 35.2984 23.0215 35.1394 23.0215Z" fill="white"/>
<defs>
<filter id="filter0_d_1_945" x="0" y="0" width="62" height="62" filterUnits="userSpaceOnUse" color-interpolation-filters="sRGB">
<feFlood flood-opacity="0" result="BackgroundImageFix"/>
<feColorMatrix in="SourceAlpha" type="matrix" values="0 0 0 0 0 0 0 0 0 0 0 0 0 0 0 0 0 0 127 0" result="hardAlpha"/>
<feOffset dy="4"/>
<feGaussianBlur stdDeviation="7"/>
<feColorMatrix type="matrix" values="0 0 0 0 0 0 0 0 0 0 0 0 0 0 0 0 0 0 0.15 0"/>
<feBlend mode="normal" in2="BackgroundImageFix" result="effect1_dropShadow_1_945"/>
<feBlend mode="normal" in="SourceGraphic" in2="effect1_dropShadow_1_945" result="shape"/>
</filter>
</defs>
</svg>
