<svg width="11" height="11" viewBox="0 0 11 11" fill="none" xmlns="http://www.w3.org/2000/svg">
<g clip-path="url(#clip0_1_607)">
<path d="M10.9973 11V10.9995H11.0001V6.96528C11.0001 4.9917 10.5752 3.47141 8.26795 3.47141C7.15879 3.47141 6.41445 4.08007 6.11058 4.65711H6.07849V3.65566H3.89087V10.9995H6.16879V7.36311C6.16879 6.40566 6.35029 5.47982 7.536 5.47982C8.70429 5.47982 8.7217 6.57249 8.7217 7.42453V11H10.9973Z" fill="black"/>
<path d="M0.181396 3.65613H2.46206V11H0.181396V3.65613Z" fill="black"/>
<path d="M1.32092 0C0.591708 0 0 0.591708 0 1.32092C0 2.05013 0.591708 2.65421 1.32092 2.65421C2.05013 2.65421 2.64183 2.05013 2.64183 1.32092C2.64138 0.591708 2.04967 0 1.32092 0V0Z" fill="black"/>
</g>
<defs>
<clipPath id="clip0_1_607">
<rect width="11" height="11" fill="white"/>
</clipPath>
</defs>
</svg>
