<svg width="34" height="34" viewBox="0 0 34 34" fill="none" xmlns="http://www.w3.org/2000/svg">
<circle cx="17" cy="17" r="17" fill="#1C140F"/>
<g clip-path="url(#clip0_1_959)">
<path d="M21.9973 22V21.9996H22.0001V17.9653C22.0001 15.9917 21.5752 14.4714 19.268 14.4714C18.1588 14.4714 17.4145 15.0801 17.1106 15.6571H17.0785V14.6557H14.8909V21.9996H17.1688V18.3631C17.1688 17.4057 17.3503 16.4799 18.536 16.4799C19.7043 16.4799 19.7217 17.5725 19.7217 18.4246V22H21.9973Z" fill="white"/>
<path d="M11.1814 14.6561H13.4621V22H11.1814V14.6561Z" fill="white"/>
<path d="M12.3209 11C11.5917 11 11 11.5917 11 12.3209C11 13.0501 11.5917 13.6542 12.3209 13.6542C13.0501 13.6542 13.6418 13.0501 13.6418 12.3209C13.6414 11.5917 13.0497 11 12.3209 11V11Z" fill="white"/>
</g>
<defs>
<clipPath id="clip0_1_959">
<rect width="11" height="11" fill="white" transform="translate(11 11)"/>
</clipPath>
</defs>
</svg>
