<svg width="14" height="14" viewBox="0 0 14 14" fill="none" xmlns="http://www.w3.org/2000/svg">
<path d="M13.1891 5.16515L9.2219 4.58859L7.44847 0.99328C7.40003 0.894842 7.32034 0.815155 7.2219 0.766717C6.97503 0.644842 6.67503 0.746405 6.55159 0.99328L4.77815 4.58859L0.810967 5.16515C0.701592 5.18078 0.601592 5.23234 0.525029 5.31047C0.432469 5.4056 0.381465 5.53359 0.383223 5.66631C0.384981 5.79904 0.439357 5.92563 0.534404 6.01828L3.40472 8.81672L2.72659 12.7683C2.71069 12.8602 2.72086 12.9547 2.75595 13.0412C2.79105 13.1276 2.84966 13.2025 2.92514 13.2573C3.00062 13.3121 3.08995 13.3447 3.183 13.3513C3.27605 13.358 3.3691 13.3384 3.45159 13.2948L7.00003 11.4292L10.5485 13.2948C10.6453 13.3464 10.7578 13.3636 10.8657 13.3448C11.1375 13.298 11.3203 13.0402 11.2735 12.7683L10.5953 8.81672L13.4657 6.01828C13.5438 5.94172 13.5953 5.84172 13.611 5.73234C13.6532 5.4589 13.4625 5.20578 13.1891 5.16515Z" fill="#FEA250"/>
</svg>
