<svg width="34" height="34" viewBox="0 0 34 34" fill="none" xmlns="http://www.w3.org/2000/svg">
<circle cx="17" cy="17" r="17" fill="white"/>
<g clip-path="url(#clip0_1_761)">
<path d="M23 13.4692C22.5166 13.6812 22.0014 13.8218 21.4644 13.8901C22.0169 13.5602 22.4386 13.0418 22.6368 12.417C22.1217 12.7241 21.5529 12.9411 20.9468 13.0621C20.4577 12.5413 19.7606 12.2188 19.0001 12.2188C17.5246 12.2188 16.3367 13.4164 16.3367 14.8846C16.3367 15.0958 16.3546 15.2989 16.3984 15.4923C14.1828 15.3842 12.2222 14.3223 10.9051 12.7046C10.6752 13.1036 10.5403 13.5602 10.5403 14.0518C10.5403 14.9748 11.0156 15.7929 11.7241 16.2666C11.2959 16.2585 10.8759 16.1342 10.52 15.9384C10.52 15.9465 10.52 15.9571 10.52 15.9676C10.52 17.2627 11.4438 18.3385 12.6552 18.5863C12.4383 18.6456 12.2019 18.6741 11.9565 18.6741C11.7859 18.6741 11.6136 18.6643 11.4519 18.6286C11.7972 19.684 12.7771 20.4599 13.9423 20.4851C13.0355 21.1944 11.8842 21.6218 10.6378 21.6218C10.4193 21.6218 10.2096 21.6121 10 21.5852C11.1806 22.3466 12.5797 22.7812 14.0885 22.7812C18.9928 22.7812 21.674 18.7188 21.674 15.1974C21.674 15.0796 21.6699 14.9658 21.6643 14.8529C22.1932 14.4775 22.6376 14.0087 23 13.4692Z" fill="black"/>
</g>
<defs>
<clipPath id="clip0_1_761">
<rect width="13" height="13" fill="white" transform="translate(10 11)"/>
</clipPath>
</defs>
</svg>
